# This file uses centimeters as units for non-parametric coordinates.

mtllib card.mtl
g default
v 0.077174 -0.083428 0.047050
v 0.034395 -0.079737 0.070069
v 0.076738 -0.061051 0.059089
v 0.077531 -0.075003 0.042825
v 0.027954 -0.058629 0.059117
v 0.076484 -0.088783 0.078422
v 0.076817 -0.091852 0.051275
v 0.053858 -0.040227 0.051570
v 0.075262 -0.011413 0.039381
v -0.115521 0.125128 -0.039560
v 0.078083 -0.061981 0.036294
v -0.115901 0.092237 -0.039065
v 0.079004 0.090223 -0.026610
v 0.076460 -0.100277 0.055500
v 0.077889 -0.066578 0.038599
v 0.072512 -0.113450 0.085260
v -0.126327 -0.093139 0.041108
v -0.126522 -0.097736 0.043414
v 0.085791 0.119317 -0.034134
v 0.078455 -0.053781 0.052676
v -0.125743 -0.054677 0.039378
v -0.118803 0.113674 -0.062676
v 0.086659 0.111102 -0.050442
v 0.080944 0.122668 -0.027862
v -0.124899 -0.059440 0.024208
v 0.060821 0.099352 -0.017187
v -0.126797 -0.071532 0.053533
v 0.073710 -0.122807 0.066703
v -0.127316 -0.083784 0.059678
v -0.125888 -0.050085 0.042778
v -0.078790 -0.089849 0.070691
v -0.080948 -0.068716 0.058177
v -0.121203 -0.008954 0.027683
v -0.119671 0.121890 -0.046368
v -0.125256 -0.067865 0.028433
v -0.125970 -0.084714 0.036883
v -0.125613 -0.076290 0.032658
v -0.102173 -0.037798 0.043227
v -0.096204 0.101377 -0.027753
v -0.107407 -0.112335 0.072279
v -0.108858 -0.099000 0.065484
v -0.107987 -0.107139 0.049138
vt 0.607385 0.495164
vt 0.509846 0.442043
vt 0.020462 0.454353
vt 0.509846 0.518573
vt 0.342211 0.680726
vt 0.587279 0.777945
vt 0.581338 0.813597
vt 0.575396 0.777946
vt 0.689847 0.774491
vt 0.677964 0.777361
vt 0.245905 0.669279
vt 0.284923 0.669475
vt 0.642313 0.774491
vt 0.577411 0.385398
vt 0.511504 0.312671
vt 0.496453 0.312671
vt 0.020462 0.497489
vt 0.689847 0.794923
vt 0.215814 0.669126
vt 0.520161 0.021168
vt 0.566570 0.393748
vt 0.520161 0.320498
vt 0.620778 0.813597
vt 0.626720 0.777945
vt 0.632662 0.813597
vt 0.496453 0.013566
vt 0.511504 0.013566
vt 0.305988 0.730308
vt 0.020462 0.432785
vt 0.485492 0.507288
vt 0.020462 0.475921
vt 0.224153 0.744658
vt 0.485492 0.519056
vt 0.020462 0.519057
vt 0.278753 0.726454
vt 0.507765 0.867026
vt 0.574309 0.825455
vt 0.411500 0.948941
vt 0.423281 0.912971
vt 0.012102 0.948941
vt 0.443424 0.831918
vt 0.464871 0.867026
vt 0.601693 0.777945
vt 0.595752 0.813597
vt 0.589810 0.777945
vt 0.624191 0.441346
vt 0.403620 0.670020
vt 0.552254 0.590547
vt 0.013519 0.867026
vt 0.013519 0.825455
vt 0.410275 0.825455
vt 0.352293 0.693274
vt 0.495398 0.590547
vt 0.485492 0.421017
vt 0.488333 0.022027
vt 0.564010 0.081518
vt 0.509846 0.420459
vt 0.072384 0.590547
vt 0.495398 0.656105
vt 0.042770 0.656105
vt 0.970599 0.021168
vt 0.362740 0.735079
vt 0.352293 0.735079
vt 0.020462 0.421017
vt 0.491191 0.825455
vt 0.659175 0.877529
vt 0.646339 0.877529
vt 0.929460 0.475404
vt 0.574309 0.867026
vt 0.411117 0.967136
vt 0.530041 0.777689
vt 0.541924 0.777689
vt 0.535982 0.813974
vt 0.466461 0.912971
vt 0.865552 0.526279
vt 0.872790 0.470438
vt 0.484308 0.776869
vt 0.496192 0.776869
vt 0.490250 0.813154
vt 0.428056 0.981533
vt 0.990469 0.310850
vt 0.975418 0.310850
vt 0.025701 0.981540
vt 0.717982 0.892144
vt 0.659869 0.892286
vt 0.647011 0.892259
vt 0.509640 0.948941
vt 0.970599 0.320498
vt 0.545486 0.777689
vt 0.557370 0.777689
vt 0.551428 0.813974
vt 0.975418 0.011744
vt 0.990469 0.011744
vt 0.717232 0.877529
vt 0.411117 0.981546
vt 0.485492 0.442585
vt 0.511426 0.813154
vt 0.499542 0.813154
vt 0.505484 0.776869
vt 0.492955 0.907093
vt 0.980913 0.420459
vt 0.980510 0.590547
vt 0.977940 0.656105
vt 0.015528 0.590547
vt 0.514596 0.777689
vt 0.526480 0.777689
vt 0.520538 0.813974
vt 0.012102 0.907093
vt 0.485492 0.485720
vt 0.485492 0.464152
vt 0.924189 0.393749
vt 0.929309 0.082886
vt 0.823004 0.735079
vt 0.812557 0.735079
vt 0.823004 0.693274
vt 0.852396 0.668612
vt 0.820838 0.668733
vt 0.014198 0.776417
vt 0.433762 0.774412
vt 0.014198 0.817276
vt 0.575882 0.948941
vt 0.576077 0.907093
vt 0.473894 0.774412
vt 0.473704 0.815271
vt 0.509640 0.907093
vt 0.934684 0.542336
vt 0.442138 0.542523
vt 0.443424 0.867026
vt 0.677964 0.794923
vt 0.642313 0.792054
vt 0.577411 0.088686
vt 0.922623 0.376643
vt 0.915771 0.088686
vt 0.024574 0.576791
vt 0.410275 0.867026
vt 0.017621 0.022027
vt 0.476270 0.948941
vt 0.433090 0.948941
vt 0.980913 0.518573
vn 0.023663 0.466081 0.884426
vn 0.023663 0.466081 0.884426
vn 0.023663 0.466081 0.884426
vn -0.058061 0.549082 0.833750
vn -0.058061 0.549082 0.833750
vn -0.058061 0.549082 0.833750
vn 0.998154 -0.012507 0.059435
vn 0.998154 -0.012507 0.059435
vn 0.998154 -0.012507 0.059435
vn 0.999283 -0.034259 0.016135
vn 0.999283 -0.034259 0.016135
vn 0.999283 -0.034259 0.016135
vn -0.043316 -0.382755 0.922834
vn -0.043316 -0.382755 0.922834
vn -0.043316 -0.382755 0.922834
vn -0.047489 0.449392 0.892071
vn -0.050392 0.449027 0.892096
vn -0.087196 0.444051 0.891749
vn -0.089509 0.443717 0.891686
vn 0.999283 -0.034246 0.016134
vn 0.999283 -0.034246 0.016134
vn 0.999283 -0.034246 0.016134
vn 0.825431 0.224722 0.517846
vn 0.825431 0.224722 0.517846
vn 0.825433 0.224720 0.517843
vn 0.825434 0.224720 0.517842
vn 0.174840 0.969913 0.169412
vn 0.174840 0.969913 0.169412
vn 0.174840 0.969913 0.169412
vn -0.049215 0.448099 0.892629
vn -0.049215 0.448099 0.892629
vn -0.049215 0.448099 0.892628
vn -0.096201 0.149717 0.984038
vn -0.096201 0.149717 0.984038
vn -0.096201 0.149717 0.984038
vn -0.029427 0.756526 0.653301
vn -0.034755 0.739963 0.671749
vn -0.029939 0.754959 0.655088
vn -0.035465 0.737715 0.674180
vn -0.040475 0.506047 0.861556
vn -0.040475 0.506047 0.861556
vn -0.040475 0.506047 0.861556
vn 0.047489 -0.449393 -0.892071
vn 0.047489 -0.449392 -0.892072
vn 0.047489 -0.449392 -0.892071
vn 0.047489 -0.449392 -0.892072
vn 0.033054 0.656736 0.753396
vn 0.033054 0.656736 0.753396
vn 0.033054 0.656736 0.753396
vn 0.047489 -0.449401 -0.892067
vn 0.047489 -0.449393 -0.892071
vn 0.047489 -0.449401 -0.892067
vn 0.047489 -0.449393 -0.892071
vn 0.399227 -0.428356 0.810635
vn 0.399227 -0.428356 0.810635
vn 0.399228 -0.428356 0.810635
vn 0.047489 -0.449393 -0.892071
vn 0.047489 -0.449392 -0.892071
vn 0.047489 -0.449393 -0.892071
vn 0.047489 -0.449392 -0.892071
vn 0.990212 -0.113594 0.081100
vn 0.990539 -0.109229 0.083075
vn 0.992416 -0.071393 0.100071
vn 0.987749 -0.139903 0.069129
vn -0.998326 0.006295 -0.057498
vn -0.998326 0.006295 -0.057498
vn -0.998326 0.006295 -0.057498
vn 0.999077 -0.042927 -0.001212
vn 0.999077 -0.042927 -0.001212
vn 0.999077 -0.042927 -0.001212
vn 0.998154 -0.012496 0.059431
vn 0.998154 -0.012496 0.059431
vn 0.998154 -0.012496 0.059431
vn -0.962328 0.047218 -0.267758
vn -0.962328 0.047218 -0.267758
vn -0.962329 0.047218 -0.267758
vn 0.126003 0.305661 0.943766
vn 0.126003 0.305661 0.943766
vn 0.126003 0.305661 0.943766
vn 0.059233 -0.015699 -0.998121
vn 0.062840 -0.039346 -0.997248
vn 0.059650 -0.018419 -0.998049
vn 0.063285 -0.042283 -0.997099
vn -0.047489 0.449393 0.892071
vn -0.054370 0.415942 0.907765
vn -0.047937 0.447247 0.893125
vn -0.056074 0.407506 0.911479
vn 0.037849 0.893245 -0.447973
vn 0.037849 0.893245 -0.447973
vn 0.037849 0.893245 -0.447973
vn 0.047489 -0.449393 -0.892071
vn 0.047489 -0.449392 -0.892072
vn 0.047489 -0.449393 -0.892071
vn 0.047489 -0.449392 -0.892072
vn -0.082149 0.278517 0.956912
vn -0.064882 0.422737 0.903927
vn -0.081614 0.283348 0.955538
vn -0.061583 0.447821 0.892000
vn 0.047489 -0.449393 -0.892071
vn 0.047489 -0.449392 -0.892071
vn 0.047489 -0.449393 -0.892071
vn 0.047489 -0.449392 -0.892071
vn 0.098038 0.256368 0.961595
vn 0.098038 0.256368 0.961595
vn 0.098038 0.256368 0.961594
vn -0.045132 0.556225 0.829805
vn -0.045132 0.556225 0.829805
vn -0.045132 0.556225 0.829805
vn -0.998154 0.012490 -0.059433
vn -0.998154 0.012490 -0.059433
vn -0.998154 0.012490 -0.059433
vn -0.117599 0.497071 0.859704
vn -0.117599 0.497071 0.859704
vn -0.117599 0.497071 0.859704
vn -0.998154 0.012488 -0.059433
vn -0.998154 0.012488 -0.059433
vn -0.998154 0.012488 -0.059433
vn -0.998154 0.012495 -0.059431
vn -0.998154 0.012495 -0.059431
vn -0.998154 0.012495 -0.059431
vn -0.998522 0.008249 -0.053711
vn -0.998522 0.008249 -0.053711
vn -0.998523 0.008249 -0.053711
vn -0.144140 0.448484 0.882092
vn -0.144140 0.448484 0.882092
vn -0.144140 0.448484 0.882092
vn -0.506922 -0.666330 0.546841
vn -0.506922 -0.666330 0.546841
vn -0.506922 -0.666330 0.546841
vn 0.004586 0.448130 0.893956
vn -0.034077 0.454859 0.889911
vn 0.001796 0.448639 0.893711
vn -0.036567 0.455268 0.889603
vn -0.998154 0.012497 -0.059436
vn -0.998154 0.012497 -0.059436
vn -0.998154 0.012497 -0.059436
vn -0.875180 0.246010 0.416580
vn -0.874763 0.246378 0.417239
vn -0.859336 0.259473 0.440699
vn -0.859008 0.259741 0.441179
vn -0.117292 0.449164 0.885717
vn -0.117292 0.449164 0.885717
vn -0.117292 0.449164 0.885717
vn -0.998154 0.012504 -0.059437
vn -0.998154 0.012504 -0.059437
vn -0.998154 0.012504 -0.059437
vn -0.998154 0.012497 -0.059439
vn -0.998154 0.012497 -0.059439
vn -0.998154 0.012497 -0.059439
vn -0.998374 0.006845 -0.056596
vn -0.998374 0.006845 -0.056596
vn -0.998374 0.006845 -0.056596
vn -0.202550 0.357631 0.911632
vn -0.202550 0.357631 0.911632
vn -0.202550 0.357631 0.911632
vn 0.990885 -0.013464 -0.134035
vn 0.990885 -0.013464 -0.134035
vn 0.990885 -0.013464 -0.134035
vn 0.037861 0.893246 -0.447972
vn 0.037861 0.893246 -0.447972
vn 0.037861 0.893246 -0.447972
vn 0.009775 -0.975614 -0.219276
vn 0.000743 -0.984447 -0.175683
vn -0.109894 -0.914501 0.389373
vn -0.119330 -0.889602 0.440874
vn -0.661048 -0.685152 0.305913
vn -0.661048 -0.685152 0.305913
vn -0.661048 -0.685152 0.305913
vn -0.205192 0.121660 0.971131
vn -0.205192 0.121660 0.971131
vn -0.205192 0.121660 0.971131
vn -0.994164 -0.107880 0.000720
vn -0.994164 -0.107880 0.000720
vn -0.994164 -0.107880 0.000720
vn 0.047489 -0.449388 -0.892074
vn 0.047489 -0.449388 -0.892074
vn 0.047489 -0.449388 -0.892074
vn 0.998154 -0.012500 0.059428
vn 0.998154 -0.012500 0.059428
vn 0.998154 -0.012500 0.059428
vn 0.984311 -0.148471 0.095332
vn 0.984311 -0.148471 0.095332
vn 0.984311 -0.148471 0.095332
vn -0.041587 0.428685 0.902496
vn -0.041587 0.428685 0.902496
vn -0.041587 0.428685 0.902496
vn -0.054479 0.443431 0.894651
vn -0.047474 0.449405 0.892066
vn -0.047519 0.449367 0.892083
vn -0.040472 0.455333 0.889401
vn 0.047489 -0.449391 -0.892072
vn 0.047489 -0.449391 -0.892072
vn 0.047489 -0.449391 -0.892072
vn 0.998814 -0.048658 0.001663
vn 0.998814 -0.048658 0.001663
vn 0.998814 -0.048658 0.001663
vn 0.047489 -0.449392 -0.892071
vn 0.047489 -0.449392 -0.892071
vn 0.047489 -0.449392 -0.892071
vn 0.047489 -0.449392 -0.892071
vn -0.998154 0.012499 -0.059439
vn -0.998154 0.012499 -0.059439
vn -0.998154 0.012499 -0.059439
vn -0.998154 0.012497 -0.059432
vn -0.998154 0.012497 -0.059432
vn -0.998154 0.012497 -0.059432
s off
g EmilyWorrall_Gameboy_Game:GameboyGame_low
usemtl lambert3SG
f 5/46/1 2/1/2 3/2/3
f 5/46/4 30/101/5 32/76/6
f 15/6/7 3/7/8 4/8/9
f 1/9/10 6/10/11 7/13/12
f 31/75/13 41/126/14 6/4/15
s 1
f 24/20/16 26/56/17 9/22/18
f 9/22/18 26/56/17 8/21/19
s off
f 7/23/20 6/24/21 14/25/22
s 2
f 19/26/23 24/27/24 20/16/25
f 20/16/25 24/27/24 9/15/26
s off
f 1/12/27 2/28/28 6/5/29
f 5/46/30 32/76/31 2/1/32
f 5/46/33 38/111/34 30/101/35
s 3
f 23/48/36 22/102/37 13/59/38
f 13/59/38 22/102/37 12/103/39
s off
f 2/1/40 32/76/41 31/75/42
s 4
f 36/109/43 1/31/44 17/30/45
f 17/30/45 1/31/44 7/17/46
s off
f 20/19/47 5/32/48 3/11/49
s 5
f 17/30/50 7/17/51 18/33/52
f 18/33/52 7/17/51 14/34/53
s off
f 3/11/54 2/35/55 1/12/56
s 6
f 35/96/57 15/29/58 37/110/59
f 37/110/59 15/29/58 4/3/60
s 7
f 14/36/61 16/37/62 28/69/63
f 14/36/61 6/65/64 16/37/62
s off
f 25/38/65 21/39/66 22/40/67
f 11/43/68 20/44/69 15/45/70
f 23/49/71 19/50/72 20/51/73
f 23/48/74 13/59/75 24/53/76
f 9/22/77 8/21/78 20/57/79
s 8
f 10/58/80 24/53/81 12/60/82
f 12/60/82 24/53/81 13/59/83
s 9
f 24/20/84 10/61/85 26/56/86
f 26/56/86 10/61/85 39/112/87
s off
f 24/62/88 19/63/89 23/52/90
s 10
f 25/54/91 11/64/92 35/96/93
f 35/96/93 11/64/92 15/29/94
s 11
f 6/5/95 41/116/96 16/47/97
f 16/47/97 41/116/96 40/117/98
s 12
f 37/110/99 4/3/100 36/109/101
f 36/109/101 4/3/100 1/31/102
s off
f 8/21/103 5/46/104 20/57/105
f 2/1/106 31/75/107 6/4/108
f 27/73/109 37/71/110 36/72/111
f 32/76/112 27/68/113 31/75/114
f 27/79/115 35/77/116 37/78/117
f 30/70/118 21/95/119 27/80/120
f 30/70/121 34/83/122 21/95/123
f 29/84/124 31/85/125 27/86/126
f 29/125/127 18/87/128 42/121/129
s 13
f 10/61/130 33/88/131 39/112/132
f 39/112/132 33/88/131 38/111/133
s off
f 29/91/134 17/89/135 18/90/136
s 14
f 10/92/137 34/93/138 33/82/139
f 33/82/139 34/93/138 30/81/140
s off
f 30/66/141 27/94/142 32/67/143
f 21/99/144 25/97/145 35/98/146
f 29/107/147 36/105/148 17/106/149
f 34/108/150 22/40/151 21/39/152
f 33/88/153 30/101/154 38/111/155
f 22/104/156 10/58/157 12/60/158
f 10/114/159 22/115/160 34/113/161
s 15
f 40/119/162 42/124/163 16/118/164
f 16/118/164 42/124/163 28/120/165
s off
f 29/125/166 42/121/167 41/122/168
f 29/139/169 41/126/170 31/75/171
f 41/123/172 42/124/173 40/119/174
f 18/33/175 14/34/176 42/127/177
f 4/128/178 3/41/179 1/42/180
f 20/18/181 3/129/182 15/130/183
f 8/21/184 38/111/185 5/46/186
s 16
f 26/131/187 39/133/188 8/14/189
f 8/14/189 39/133/188 38/132/190
s off
f 14/34/191 28/134/192 42/127/193
f 11/135/194 23/49/195 20/51/196
s 17
f 22/55/197 23/136/198 25/54/199
f 25/54/199 23/136/198 11/64/200
s off
f 27/74/201 36/137/202 29/100/203
f 21/39/204 35/138/205 27/74/206
