# This file uses centimeters as units for non-parametric coordinates.

mtllib cube_text2.mtl
g default
v -1.530000 -0.500000 0.500000
v 1.530000 -0.500000 0.500000
v -1.530000 0.500000 0.500000
v 1.530000 0.500000 0.500000
v -1.530000 0.500000 -0.500000
v 1.530000 0.500000 -0.500000
v -1.530000 -0.500000 -0.500000
v 1.530000 -0.500000 -0.500000
vt 0.082368 0.496318
vt 0.768755 0.329579
vt 0.769000 0.495343
vt 0.251489 0.496078
vt 0.769245 0.661107
vt 0.251734 0.661841
vt 0.938366 0.660866
vt 0.250999 0.164550
vt 0.769490 0.826870
vt 0.768510 0.163815
vt 0.938121 0.495103
vt 0.251979 0.827605
vt 0.082613 0.662081
vt 0.251244 0.330314
vn 0.000000 0.000000 1.000000
vn 0.000000 0.000000 1.000000
vn 0.000000 0.000000 1.000000
vn 0.000000 0.000000 1.000000
vn 0.000000 1.000000 0.000000
vn 0.000000 1.000000 0.000000
vn 0.000000 1.000000 0.000000
vn 0.000000 1.000000 0.000000
vn 0.000000 0.000000 -1.000000
vn 0.000000 0.000000 -1.000000
vn 0.000000 0.000000 -1.000000
vn 0.000000 0.000000 -1.000000
vn 0.000000 -1.000000 0.000000
vn 0.000000 -1.000000 0.000000
vn 0.000000 -1.000000 0.000000
vn 0.000000 -1.000000 0.000000
vn 1.000000 0.000000 0.000000
vn 1.000000 0.000000 0.000000
vn 1.000000 0.000000 0.000000
vn 1.000000 0.000000 0.000000
vn -1.000000 0.000000 0.000000
vn -1.000000 0.000000 0.000000
vn -1.000000 0.000000 0.000000
vn -1.000000 0.000000 0.000000
s off
g pCube1
usemtl lambert2SG
f 1/14/1 2/2/2 4/3/3 3/4/4
f 3/4/5 4/3/6 6/5/7 5/6/8
f 5/6/9 6/5/10 8/9/11 7/12/12
f 7/8/13 8/10/14 2/2/15 1/14/16
f 2/11/17 8/7/18 6/5/19 4/3/20
f 7/13/21 1/1/22 3/4/23 5/6/24
